{
  "accessors": [
    {
      "bufferView": 2,
      "componentType": 5126,
      "count": 65532,
      "max": [
        315.98358154296875,
        19.952383041381836,
        334.9451599121094
      ],
      "min": [
        -584.2315673828125,
        -86.49983978271484,
        -334.9450988769531
      ],
      "type": "VEC3"
    },
    {
      "bufferView": 2,
      "byteOffset": 786384,
      "componentType": 5126,
      "count": 65532,
      "max": [
        1.0,
        1.0,
        1.0
      ],
      "min": [
        -1.0,
        -1.0,
        -1.0
      ],
      "type": "VEC3"
    },
    {
      "bufferView": 3,
      "componentType": 5126,
      "count": 65532,
      "max": [
        0.9999980330467224,
        1.0,
        1.0,
        1.0
      ],
      "min": [
        -1.0,
        -1.0,
        -1.0,
        -1.0
      ],
      "type": "VEC4"
    },
    {
      "bufferView": 1,
      "componentType": 5126,
      "count": 65532,
      "max": [
        0.9970484375953674,
        0.9971870183944702
      ],
      "min": [
        0.0,
        0.0
      ],
      "type": "VEC2"
    },
    {
      "bufferView": 1,
      "byteOffset": 524256,
      "componentType": 5126,
      "count": 65532,
      "max": [
        0.7490371465682983,
        0.1862466186285019
      ],
      "min": [
        0.0,
        0.0
      ],
      "type": "VEC2"
    },
    {
      "bufferView": 1,
      "byteOffset": 1048512,
      "componentType": 5126,
      "count": 65532,
      "max": [
        0.9826394319534302,
        0.9880836009979248
      ],
      "min": [
        0.0,
        0.0
      ],
      "type": "VEC2"
    },
    {
      "bufferView": 1,
      "byteOffset": 1572768,
      "componentType": 5126,
      "count": 65532,
      "max": [
        0.9970484375953674,
        0.9971870183944702
      ],
      "min": [
        0.0,
        0.0
      ],
      "type": "VEC2"
    },
    {
      "bufferView": 1,
      "byteOffset": 2097024,
      "componentType": 5126,
      "count": 65532,
      "max": [
        0.9970484375953674,
        0.9971870183944702
      ],
      "min": [
        0.0,
        0.0
      ],
      "type": "VEC2"
    },
    {
      "bufferView": 0,
      "componentType": 5125,
      "count": 328260,
      "type": "SCALAR"
    },
    {
      "bufferView": 2,
      "byteOffset": 1572768,
      "componentType": 5126,
      "count": 65532,
      "max": [
        299.04931640625,
        84.59233093261719,
        332.2691650390625
      ],
      "min": [
        -888.3112182617188,
        -90.12545013427734,
        -332.2691345214844
      ],
      "type": "VEC3"
    },
    {
      "bufferView": 2,
      "byteOffset": 2359152,
      "componentType": 5126,
      "count": 65532,
      "max": [
        1.0,
        1.0,
        1.0
      ],
      "min": [
        -1.0,
        -1.0,
        -1.0
      ],
      "type": "VEC3"
    },
    {
      "bufferView": 3,
      "byteOffset": 1048512,
      "componentType": 5126,
      "count": 65532,
      "max": [
        1.0,
        1.0,
        1.0,
        1.0
      ],
      "min": [
        -1.0,
        -1.0,
        -1.0,
        -1.0
      ],
      "type": "VEC4"
    },
    {
      "bufferView": 1,
      "byteOffset": 2621280,
      "componentType": 5126,
      "count": 65532,
      "max": [
        0.9971798658370972,
        0.9971870183944702
      ],
      "min": [
        0.0028130216524004936,
        0.002813011407852173
      ],
      "type": "VEC2"
    },
    {
      "bufferView": 1,
      "byteOffset": 3145536,
      "componentType": 5126,
      "count": 65532,
      "max": [
        0.749036431312561,
        0.5132652521133423
      ],
      "min": [
        0.0,
        -0.1425330638885498
      ],
      "type": "VEC2"
    },
    {
      "bufferView": 1,
      "byteOffset": 3669792,
      "componentType": 5126,
      "count": 65532,
      "max": [
        0.9376499056816101,
        0.9489933252334595
      ],
      "min": [
        0.0,
        0.0
      ],
      "type": "VEC2"
    },
    {
      "bufferView": 1,
      "byteOffset": 4194048,
      "componentType": 5126,
      "count": 65532,
      "max": [
        0.9971798658370972,
        0.9971870183944702
      ],
      "min": [
        0.0028130216524004936,
        0.002813011407852173
      ],
      "type": "VEC2"
    },
    {
      "bufferView": 1,
      "byteOffset": 4718304,
      "componentType": 5126,
      "count": 65532,
      "max": [
        0.9971798658370972,
        0.9971870183944702
      ],
      "min": [
        0.0028130216524004936,
        0.002813011407852173
      ],
      "type": "VEC2"
    },
    {
      "bufferView": 0,
      "byteOffset": 1313040,
      "componentType": 5125,
      "count": 268620,
      "type": "SCALAR"
    },
    {
      "bufferView": 2,
      "byteOffset": 3145536,
      "componentType": 5126,
      "count": 11840,
      "max": [
        253.65188598632813,
        -9.478246688842773,
        323.80877685546875
      ],
      "min": [
        48.14942932128906,
        -90.12545013427734,
        -323.8087158203125
      ],
      "type": "VEC3"
    },
    {
      "bufferView": 2,
      "byteOffset": 3287616,
      "componentType": 5126,
      "count": 11840,
      "max": [
        1.0,
        1.0,
        1.0
      ],
      "min": [
        -1.0,
        -1.0,
        -1.0
      ],
      "type": "VEC3"
    },
    {
      "bufferView": 3,
      "byteOffset": 2097024,
      "componentType": 5126,
      "count": 11840,
      "max": [
        1.0,
        1.0,
        1.0,
        1.0
      ],
      "min": [
        -0.9999961853027344,
        -1.0,
        -1.0,
        -1.0
      ],
      "type": "VEC4"
    },
    {
      "bufferView": 1,
      "byteOffset": 5242560,
      "componentType": 5126,
      "count": 11840,
      "max": [
        0.9669362902641296,
        0.9614737033843994
      ],
      "min": [
        0.005034565459936857,
        0.003628671169281006
      ],
      "type": "VEC2"
    },
    {
      "bufferView": 1,
      "byteOffset": 5337280,
      "componentType": 5126,
      "count": 11840,
      "max": [
        0.0,
        0.0
      ],
      "min": [
        0.0,
        0.0
      ],
      "type": "VEC2"
    },
    {
      "bufferView": 1,
      "byteOffset": 5432000,
      "componentType": 5126,
      "count": 11840,
      "max": [
        0.0,
        0.0
      ],
      "min": [
        0.0,
        0.0
      ],
      "type": "VEC2"
    },
    {
      "bufferView": 1,
      "byteOffset": 5526720,
      "componentType": 5126,
      "count": 11840,
      "max": [
        0.9669362902641296,
        0.9614737033843994
      ],
      "min": [
        0.005034565459936857,
        0.003628671169281006
      ],
      "type": "VEC2"
    },
    {
      "bufferView": 1,
      "byteOffset": 5621440,
      "componentType": 5126,
      "count": 11840,
      "max": [
        0.9669362902641296,
        0.9614737033843994
      ],
      "min": [
        0.005034565459936857,
        0.003628671169281006
      ],
      "type": "VEC2"
    },
    {
      "bufferView": 0,
      "byteOffset": 2387520,
      "componentType": 5125,
      "count": 59208,
      "type": "SCALAR"
    },
    {
      "bufferView": 2,
      "byteOffset": 3429696,
      "componentType": 5126,
      "count": 23842,
      "max": [
        47.75460433959961,
        29.02313995361328,
        11.190047264099121
      ],
      "min": [
        -22.763002395629883,
        -15.135002136230469,
        -11.189610481262207
      ],
      "type": "VEC3"
    },
    {
      "bufferView": 2,
      "byteOffset": 3715800,
      "componentType": 5126,
      "count": 23842,
      "max": [
        1.0,
        0.999963641166687,
        1.0
      ],
      "min": [
        -1.0,
        -0.9997571110725403,
        -1.0
      ],
      "type": "VEC3"
    },
    {
      "bufferView": 1,
      "byteOffset": 5716160,
      "componentType": 5126,
      "count": 23842,
      "max": [
        0.9990178942680359,
        0.9979561567306519
      ],
      "min": [
        0.000982046127319336,
        0.000982046127319336
      ],
      "type": "VEC2"
    },
    {
      "bufferView": 1,
      "byteOffset": 5906896,
      "componentType": 5126,
      "count": 23842,
      "max": [
        1.0108221769332886,
        1.0730535984039307
      ],
      "min": [
        -0.3179757595062256,
        -0.0032117366790771484
      ],
      "type": "VEC2"
    },
    {
      "bufferView": 1,
      "byteOffset": 6097632,
      "componentType": 5126,
      "count": 23842,
      "max": [
        1.072556972503662,
        1.0662221908569336
      ],
      "min": [
        -0.06935381889343262,
        -0.07134291529655457
      ],
      "type": "VEC2"
    },
    {
      "bufferView": 1,
      "byteOffset": 6288368,
      "componentType": 5126,
      "count": 23842,
      "max": [
        0.9990178942680359,
        0.9979561567306519
      ],
      "min": [
        0.000982046127319336,
        0.000982046127319336
      ],
      "type": "VEC2"
    },
    {
      "bufferView": 1,
      "byteOffset": 6479104,
      "componentType": 5126,
      "count": 23842,
      "max": [
        0.9990178942680359,
        0.9979561567306519
      ],
      "min": [
        0.000982046127319336,
        0.000982046127319336
      ],
      "type": "VEC2"
    },
    {
      "bufferView": 0,
      "byteOffset": 2624352,
      "componentType": 5125,
      "count": 99864,
      "type": "SCALAR"
    }
  ],
  "asset": {
    "extras": {
      "author": "ThumbsUp7Up (https://sketchfab.com/masterbuilderandrew1234)",
      "license": "CC-BY-4.0 (http://creativecommons.org/licenses/by/4.0/)",
      "source": "https://sketchfab.com/3d-models/mandalorian-n1-naboo-starfighter-with-interior-8cf031f2061a4ec5b782db085a7cddb9",
      "title": "Mandalorian N1 Naboo Starfighter (With Interior)"
    },
    "generator": "Sketchfab-15.12.0",
    "version": "2.0"
  },
  "bufferViews": [
    {
      "buffer": 0,
      "byteLength": 3023808,
      "name": "floatBufferViews",
      "target": 34963
    },
    {
      "buffer": 0,
      "byteLength": 6669840,
      "byteOffset": 3023808,
      "byteStride": 8,
      "name": "floatBufferViews",
      "target": 34962
    },
    {
      "buffer": 0,
      "byteLength": 4001904,
      "byteOffset": 9693648,
      "byteStride": 12,
      "name": "floatBufferViews",
      "target": 34962
    },
    {
      "buffer": 0,
      "byteLength": 2286464,
      "byteOffset": 13695552,
      "byteStride": 16,
      "name": "floatBufferViews",
      "target": 34962
    }
  ],
  "buffers": [
    {
      "byteLength": 15982016,
      "uri": "scene.bin"
    }
  ],
  "extensionsUsed": [
    "KHR_materials_transmission",
    "KHR_materials_specular"
  ],
  "images": [
    {
      "uri": "textures/Mandalorian_N1_Naboo_Starfighter_baseColor.png"
    },
    {
      "uri": "textures/Mandalorian_N1_Naboo_Starfighter_metallicRoughness.png"
    },
    {
      "uri": "textures/Mandalorian_N1_Naboo_Starfighter_normal.png"
    },
    {
      "uri": "textures/Mandalorian_N1_Naboo_Starfighter_transmission.png"
    },
    {
      "uri": "textures/Mandalorian_N1_Naboo_Cockpit_baseColor.png"
    }
  ],
  "materials": [
    {
      "alphaMode": "BLEND",
      "doubleSided": true,
      "extensions": {
        "KHR_materials_specular": {
          "specularColorFactor": [
            1.0,
            1.0,
            1.0
          ],
          "specularFactor": 0.6019065962867696
        },
        "KHR_materials_transmission": {
          "transmissionFactor": 1.0,
          "transmissionTexture": {
            "index": 3
          }
        }
      },
      "name": "Mandalorian_N1_Naboo_Starfighter",
      "normalTexture": {
        "index": 2
      },
      "pbrMetallicRoughness": {
        "baseColorTexture": {
          "index": 0
        },
        "metallicRoughnessTexture": {
          "index": 1
        },
        "roughnessFactor": 0.7299069863831965
      }
    },
    {
      "doubleSided": true,
      "name": "Mandalorian_N1_Naboo_Cockpit",
      "pbrMetallicRoughness": {
        "baseColorTexture": {
          "index": 4
        },
        "metallicFactor": 0.0,
        "roughnessFactor": 0.8211145618000169
      }
    }
  ],
  "meshes": [
    {
      "name": "Mandalorian_N1_Naboo_Starfighter_Mandalorian_N1_Naboo_Starfighter_0",
      "primitives": [
        {
          "attributes": {
            "NORMAL": 1,
            "POSITION": 0,
            "TANGENT": 2,
            "TEXCOORD_0": 3,
            "TEXCOORD_1": 4,
            "TEXCOORD_2": 5,
            "TEXCOORD_3": 6,
            "TEXCOORD_4": 7
          },
          "indices": 8,
          "material": 0,
          "mode": 4
        }
      ]
    },
    {
      "name": "Mandalorian_N1_Naboo_Starfighter_Mandalorian_N1_Naboo_Starfighter_0",
      "primitives": [
        {
          "attributes": {
            "NORMAL": 10,
            "POSITION": 9,
            "TANGENT": 11,
            "TEXCOORD_0": 12,
            "TEXCOORD_1": 13,
            "TEXCOORD_2": 14,
            "TEXCOORD_3": 15,
            "TEXCOORD_4": 16
          },
          "indices": 17,
          "material": 0,
          "mode": 4
        }
      ]
    },
    {
      "name": "Mandalorian_N1_Naboo_Starfighter_Mandalorian_N1_Naboo_Starfighter_0",
      "primitives": [
        {
          "attributes": {
            "NORMAL": 19,
            "POSITION": 18,
            "TANGENT": 20,
            "TEXCOORD_0": 21,
            "TEXCOORD_1": 22,
            "TEXCOORD_2": 23,
            "TEXCOORD_3": 24,
            "TEXCOORD_4": 25
          },
          "indices": 26,
          "material": 0,
          "mode": 4
        }
      ]
    },
    {
      "name": "Mandalorian_N1_Naboo_Cockpit_Mandalorian_N1_Naboo_Cockpit_0",
      "primitives": [
        {
          "attributes": {
            "NORMAL": 28,
            "POSITION": 27,
            "TEXCOORD_0": 29,
            "TEXCOORD_1": 30,
            "TEXCOORD_2": 31,
            "TEXCOORD_3": 32,
            "TEXCOORD_4": 33
          },
          "indices": 34,
          "material": 1,
          "mode": 4
        }
      ]
    }
  ],
  "nodes": [
    {
      "children": [
        1
      ],
      "matrix": [
        1.0,
        0.0,
        0.0,
        0.0,
        0.0,
        2.220446049250313e-16,
        -1.0,
        0.0,
        0.0,
        1.0,
        2.220446049250313e-16,
        0.0,
        0.0,
        0.0,
        0.0,
        1.0
      ],
      "name": "Sketchfab_model"
    },
    {
      "children": [
        2
      ],
      "matrix": [
        0.009999999776482582,
        0.0,
        0.0,
        0.0,
        0.0,
        0.0,
        0.009999999776482582,
        0.0,
        0.0,
        -0.009999999776482582,
        0.0,
        0.0,
        0.0,
        0.0,
        0.0,
        1.0
      ],
      "name": "0339fa1e7f094ee7935746506efbb79f.fbx"
    },
    {
      "children": [
        3,
        7
      ],
      "name": "RootNode"
    },
    {
      "children": [
        4,
        5,
        6
      ],
      "name": "Mandalorian_N1_Naboo_Starfighter"
    },
    {
      "mesh": 0,
      "name": "Mandalorian_N1_Naboo_Starfighter_Mandalorian_N1_Naboo_Starfighter_0"
    },
    {
      "mesh": 1,
      "name": "Mandalorian_N1_Naboo_Starfighter_Mandalorian_N1_Naboo_Starfighter_0"
    },
    {
      "mesh": 2,
      "name": "Mandalorian_N1_Naboo_Starfighter_Mandalorian_N1_Naboo_Starfighter_0"
    },
    {
      "children": [
        8
      ],
      "matrix": [
        2.6630516829358806,
        0.8254949998723357,
        0.0,
        0.0,
        -0.8254949998723357,
        2.6630516829358806,
        0.0,
        0.0,
        0.0,
        0.0,
        2.7880613803863525,
        0.0,
        -141.3135223388672,
        -0.180131196975708,
        -4.76837158203125e-05,
        1.0
      ],
      "name": "Mandalorian_N1_Naboo_Cockpit"
    },
    {
      "mesh": 3,
      "name": "Mandalorian_N1_Naboo_Cockpit_Mandalorian_N1_Naboo_Cockpit_0"
    }
  ],
  "samplers": [
    {
      "magFilter": 9729,
      "minFilter": 9987,
      "wrapS": 10497,
      "wrapT": 10497
    }
  ],
  "scene": 0,
  "scenes": [
    {
      "name": "Sketchfab_Scene",
      "nodes": [
        0
      ]
    }
  ],
  "textures": [
    {
      "sampler": 0,
      "source": 0
    },
    {
      "sampler": 0,
      "source": 1
    },
    {
      "sampler": 0,
      "source": 2
    },
    {
      "sampler": 0,
      "source": 3
    },
    {
      "sampler": 0,
      "source": 4
    }
  ]
}
